<?xml version="1.0" standalone="no"?>
<!DOCTYPE svg PUBLIC "-//W3C//DTD SVG 20010904//EN"
 "http://www.w3.org/TR/2001/REC-SVG-20010904/DTD/svg10.dtd">
<svg version="1.0" xmlns="http://www.w3.org/2000/svg"
 width="512.000000pt" height="512.000000pt" viewBox="0 0 512.000000 512.000000"
 preserveAspectRatio="xMidYMid meet">
<metadata>
Created by potrace 1.14, written by Peter Selinger 2001-2017
</metadata>
<g transform="translate(0.000000,512.000000) scale(0.100000,-0.100000)"
fill="#000000" stroke="none">
<path d="M1861 5104 c-332 -47 -567 -165 -796 -400 l-101 -102 -1 188 c-1 193
-6 220 -43 240 -27 15 -572 15 -599 1 -11 -6 -25 -20 -31 -31 -7 -14 -11 -771
-11 -2457 0 -1341 0 -2451 0 -2466 1 -15 12 -39 26 -52 l24 -25 301 0 301 0
24 25 25 24 0 852 0 852 73 -69 c79 -76 176 -143 282 -197 81 -40 225 -93 279
-101 21 -4 41 -8 45 -10 6 -4 25 -7 126 -22 66 -10 314 -10 390 0 76 10 147
23 199 37 23 6 46 12 51 13 41 9 158 51 222 81 419 193 721 533 883 993 29 81
71 239 84 312 3 19 8 44 10 55 4 22 14 107 25 224 8 83 6 374 -3 446 -3 25 -9
66 -12 93 -5 41 -23 139 -38 211 -13 61 -60 209 -86 277 -46 115 -149 312
-193 369 -165 214 -269 315 -427 418 -176 113 -329 174 -542 213 -109 21 -367
24 -487 8z m349 -659 c84 -22 211 -81 291 -135 54 -37 202 -177 247 -234 36
-45 93 -139 129 -211 275 -547 154 -1258 -278 -1640 -120 -106 -275 -185 -429
-220 -75 -17 -251 -23 -306 -11 -16 4 -38 8 -49 10 -164 31 -343 131 -482 268
-400 396 -496 1090 -221 1613 116 220 286 394 483 492 67 34 142 60 225 79 77
18 306 12 390 -11z"/>
<path d="M4154 2379 c-33 -9 -71 -22 -85 -30 -145 -80 -222 -170 -262 -305
-19 -64 -20 -207 -2 -275 34 -127 115 -233 227 -294 37 -20 73 -38 80 -39 7
-2 33 -9 58 -16 25 -7 88 -13 140 -13 164 0 288 45 390 143 121 116 167 294
125 478 -40 171 -181 308 -370 357 -75 20 -217 17 -301 -6z"/>
</g>
</svg>
